<?xml version="1.0" encoding="utf-8"?>
<!-- Generator: Adobe Illustrator 16.0.4, SVG Export Plug-In . SVG Version: 6.00 Build 0)  -->
<!DOCTYPE svg PUBLIC "-//W3C//DTD SVG 1.1//EN" "http://www.w3.org/Graphics/SVG/1.1/DTD/svg11.dtd">
<svg version="1.1" id="Layer_1" xmlns="http://www.w3.org/2000/svg" xmlns:xlink="http://www.w3.org/1999/xlink" x="0px" y="0px"
	 width="1920px" height="1080px" viewBox="0 0 1920 1080" enable-background="new 0 0 1920 1080" xml:space="preserve">
<g>
	<polygon fill="#EABA75" points="1350.6,658.8 1111.6,1015 959.4,1076.8 959.4,131 1253.7,164.2 1335.8,413.4 	"/>
	<polygon fill="#EAC18B" points="568.1,658.8 807.1,1015 959.4,1076.8 959.4,131 665,164.2 582.9,413.4 	"/>
	<g>
		<polygon fill="#FEFDFD" points="1119.8,778.1 959.4,778.1 959.4,895.8 1071.3,895.8 		"/>
		<polygon fill="#FEFDFD" points="798.9,778.1 959.4,778.1 959.4,895.8 847.4,895.8 		"/>
	</g>
	<polygon fill="#1F1E1D" points="1335.6,425.3 1289.9,325 1160.8,254.2 960.2,233.6 758.6,254.2 628.8,325 582.7,425.3 593.8,170.9 
		593.8,170.9 613.3,86.9 720.3,2.9 959.4,18.4 1261.7,72.5 1324.8,170.9 1324.7,170.9 	"/>
	<path fill="#1F1E1D" d="M778.7,254.9c0,0-112.9,52.3-86.7,146.2c0,0-50.1-102.8-42.6-139.5C656.8,224.9,778.7,254.9,778.7,254.9z"
		/>
	<path fill="#1F1E1D" d="M800.7,242c0,0-75.5,35-58,97.8c0,0-33.5-68.7-28.5-93.3C719.2,222,800.7,242,800.7,242z"/>
	<path fill="#383838" d="M778.7,224.4c0,0-39.6,19.5-44.8,51.4c-5.2,31.9-9-41.5-9-41.5s-47.6,31-45.5,79.3
		c2.1,48.3-4.2-79.3-4.2-79.3l11.5,11.1l40.3-28.3l10.1,17.3L778.7,224.4z"/>
	<g>
		<polygon fill="#1F1E1D" points="1339.8,479.5 1324.7,647.7 1155,831.8 1147.5,739.8 961.1,739.8 959.4,769 1136.2,769 
			1074.9,915.2 1026.1,940.4 959.4,921.5 959.4,1076.8 1111.6,1015 1350.6,658.8 		"/>
		<polygon fill="#1F1E1D" points="578.9,479.5 594,647.7 763.7,831.8 771.2,739.8 957.6,739.8 959.4,769 782.5,769 843.8,915.2 
			892.6,940.4 959.4,921.5 959.4,1076.8 807.1,1015 568.1,658.8 		"/>
	</g>
	<polygon fill="#1F1E1D" points="949.7,739.8 972,739.8 959.4,769 	"/>
</g>
</svg>
